<svg xmlns="http://www.w3.org/2000/svg" xml:space="preserve" width="2048" height="2048" style="shape-rendering:geometricPrecision;text-rendering:geometricPrecision;image-rendering:optimizeQuality;fill-rule:evenodd;clip-rule:evenodd"><defs><clipPath id="id0"><path d="M1024 0c565.539 0 1024 458.461 1024 1024s-458.461 1024-1024 1024S0 1589.539 0 1024 458.461 0 1024 0z"/></clipPath><style>.fil1{fill:#ab47bc}.fil10,.fil11{fill:#212121;fill-rule:nonzero}.fil10{fill:#37474f}</style></defs><g id="Layer_x0020_1"><path d="M1024 0c565.539 0 1024 458.461 1024 1024s-458.461 1024-1024 1024S0 1589.539 0 1024 458.461 0 1024 0z" style="fill:#ce93d8"/><g style="clip-path:url(#id0)"><g id="_341214208"><path id="_3384428161" class="fil1" d="M1544.19 678.202 2680.08 1814.08l1.04 1.29 1.02 1.31.98 1.34.96 1.37.93 1.38.89 1.41.86 1.44.83 1.46.8 1.48.76 1.5.73 1.52.7 1.54.65 1.56.63 1.59.58 1.6.55 1.62.52 1.63.47 1.66.44 1.67.4 1.68.35 1.71.32 1.71.28 1.73.24 1.75.19 1.76.15 1.77.11 1.78.07 1.8.02 1.8L1560.67 724.058l-.03-1.805-.06-1.794-.11-1.784-.15-1.77-.2-1.758-.23-1.745-.28-1.731-.32-1.717-.36-1.702-.39-1.686-.44-1.671-.47-1.653-.52-1.637-.55-1.619-.58-1.601-.63-1.582-.66-1.563-.69-1.543-.73-1.522-.76-1.501-.8-1.48-.83-1.458-.86-1.435-.89-1.41-.93-1.388-.96-1.363-.98-1.338-1.02-1.313z"/><path id="_338443008" class="fil1" d="M1560.67 724.058 2696.55 1859.94v530.43L1560.67 1254.49z"/><path id="_338443896" class="fil1" d="m1560.67 1254.49 1135.88 1135.88-.02 1.8-.07 1.8-.11 1.78-.15 1.77-.19 1.76-.24 1.74-.28 1.73-.32 1.72-.35 1.7-.4 1.69-.44 1.67-.47 1.65-.52 1.64-.55 1.62-.58 1.6-.63 1.58-.65 1.56-.7 1.55-.73 1.52-.76 1.5-.8 1.48-.83 1.46-.86 1.43-.89 1.41-.93 1.39-.96 1.36-.98 1.34-1.02 1.32-1.04 1.28-1.08 1.26-1.1 1.23-1.13 1.21-1135.88-1135.88 1.13-1.21 1.1-1.23 1.07-1.26 1.05-1.29 1.02-1.31.98-1.34.96-1.36.93-1.39.89-1.41.86-1.43.83-1.46.8-1.48.76-1.5.73-1.53.69-1.54.66-1.56.63-1.58.58-1.6.55-1.62.52-1.64.47-1.65.44-1.67.39-1.69.36-1.7.32-1.72.28-1.73.23-1.74.2-1.76.15-1.77.11-1.79.06-1.79z"/><path id="_338443464" class="fil1" d="m1540.89 1304.04 1135.88 1135.88-1.16 1.17-1.18 1.15-1.22 1.12-1.23 1.09-1.26 1.06-1.29 1.02-1.31 1-1.33.96-1.36.93-1.38.9-1.4.86-1.42.83-1.44.8-1.47.75-1.48.73-1.5.68-1.52.65-1.54.61-1.55.57-1.58.54-1.59.49-1.6.46-1.62.41-1.64.37-1.65.33-1.66.29-1.68.25-1.69.2-1.7.16-1.71.11-1.73.07-1.73.02-1135.88-1135.88 1.73-.02 1.73-.07 1.71-.12 1.7-.15 1.69-.21 1.68-.24 1.66-.29 1.65-.33 1.64-.37 1.62-.42 1.6-.45 1.59-.49 1.57-.54 1.56-.57 1.54-.61 1.52-.65 1.5-.68 1.48-.73 1.47-.76 1.44-.79 1.42-.83 1.4-.86 1.38-.9 1.36-.93 1.33-.96 1.31-1 1.29-1.02 1.26-1.06 1.23-1.09 1.21-1.12 1.19-1.15z"/><path id="_338443344" class="fil1" d="m1573.71 1330.55 1135.88 1135.88 1.8 2 1.66 2.25 1.5 2.46 1.35 2.68 1.17 2.86.98 3.03.78 3.2.58 3.32.35 3.45.12 3.55L1584 1359.35l-.12-3.55-.35-3.45-.58-3.33-.78-3.19-.99-3.03-1.16-2.87-1.35-2.67-1.5-2.47-1.66-2.24z"/><path id="_338443512" class="fil1" d="m1584 1359.35 1135.88 1135.88-.12 3.55-.35 3.45-.58 3.33-.78 3.19-.98 3.04-1.17 2.86-1.35 2.67-1.5 2.47-1.66 2.24-1.8 2-1.92 1.74-2.04 1.46-2.14 1.17-2.24.86-2.32.52-2.38.18-1135.88-1135.88 2.38-.18 2.32-.53 2.24-.85 2.14-1.17 2.04-1.46 1.92-1.74 1.8-2 1.66-2.24 1.5-2.47 1.35-2.67 1.16-2.87.99-3.03.78-3.19.58-3.33.35-3.45z"/><path id="_338443608" class="fil1" d="M554.735 1324.62 1690.62 2460.5l-1.74-.02-1.72-.07-1.72-.11-1.7-.16-1.69-.2-1.67-.25-1.67-.29-1.65-.33-1.63-.37-1.62-.41-1.61-.46-1.59-.49-1.57-.54-1.56-.57-1.54-.61-1.52-.65-1.5-.68-1.48-.73-1.46-.75-1.45-.8-1.42-.83-1.4-.86-1.38-.9-1.35-.93-1.34-.96-1.31-1-1.28-1.02-1.26-1.06L511.904 1308.57l1.262 1.06 1.286 1.02 1.31 1 1.333.96 1.356.93 1.38.9 1.399.86 1.422.83 1.444.79 1.462.76 1.483.73 1.502.68 1.521.65 1.538.61 1.555.57 1.573.54 1.59.49 1.605.45 1.621.42 1.636.37 1.65.33 1.663.29 1.677.24 1.689.21 1.702.15 1.712.12 1.725.07z"/><path id="_338443728" class="fil1" d="M487.334 1394.08 1623.22 2529.96l-2.39-.18-2.32-.52-2.23-.86-2.15-1.17-2.04-1.46L476.211 1389.89l2.04 1.46 2.144 1.17 2.236.85 2.317.53z"/><path id="_338443776" class="fil1" d="m1560.67 1394.08 1135.88 1135.88H1623.22L487.334 1394.08z"/><path id="_341214040" class="fil1" d="M554.735 653.921h938.532c18.558 0 35.414 7.886 47.62 20.584 12.203 12.7 19.78 30.241 19.78 49.552v530.428c0 19.31-7.577 36.85-19.78 49.551-12.206 12.7-29.062 20.584-47.62 20.584h67.4c12.887 0 23.335 15.55 23.335 34.73 0 19.18-10.448 34.729-23.334 34.729H487.338c-12.887 0-23.334-15.55-23.334-34.73 0-19.178 10.447-34.729 23.334-34.729h67.4c-18.557 0-35.414-7.883-47.62-20.584-12.203-12.7-19.78-30.24-19.78-49.55V724.056c0-19.31 7.575-36.85 19.78-49.552 12.206-12.698 29.062-20.584 47.62-20.584z"/></g></g><path d="M1024 0c565.539 0 1024 458.461 1024 1024s-458.461 1024-1024 1024S0 1589.539 0 1024 458.461 0 1024 0z" style="fill:none"/><path d="M554.735 653.921h938.532c18.558 0 35.414 7.886 47.62 20.584 12.203 12.7 19.78 30.241 19.78 49.552v530.428c0 19.31-7.577 36.85-19.78 49.551-12.206 12.7-29.062 20.584-47.62 20.584H554.735c-18.558 0-35.414-7.883-47.62-20.584-12.204-12.7-19.78-30.24-19.78-49.55V724.056c0-19.31 7.575-36.85 19.78-49.552 12.206-12.698 29.061-20.584 47.62-20.584z" style="fill:#37474f"/><path d="M554.735 697.671c-6.21 0-11.82 2.721-16.076 7.15-4.969 5.17-7.576 12.094-7.576 19.237v530.428c0 7.142 2.608 14.067 7.576 19.237 4.258 4.429 9.867 7.15 16.076 7.15h938.532c6.208 0 11.818-2.72 16.074-7.15 4.969-5.169 7.578-12.095 7.578-19.237V724.058c0-7.143-2.61-14.068-7.577-19.238-4.256-4.429-9.867-7.149-16.075-7.149H554.735z" style="fill:#fffffe"/><path d="M487.334 1324.62c-12.887 0-23.334 15.55-23.334 34.73 0 19.18 10.447 34.728 23.334 34.728h1073.33c12.886 0 23.334-15.549 23.334-34.729 0-19.179-10.448-34.729-23.334-34.729H487.334z" style="fill:#263238;fill-rule:nonzero"/><circle cx="1499.14" cy="1361.49" style="fill:#80deea" r="12.043"/><circle cx="1463.2" cy="1361.49" style="fill:#7cb342" r="12.043"/><path d="M758.401 741.288c-6.378 0-11.549 5.17-11.549 11.548s5.171 11.548 11.549 11.548h75.729l20.004 32.259 57.109 327.605 11.368-1.94-11.376 1.983c.986 5.661 5.94 9.635 11.507 9.565h331.442c6.377 0 11.548-5.17 11.548-11.548s-5.171-11.547-11.548-11.547H932.303l-7.9-45.325h326.628c8.988 0 16.745-3.586 22.537-9.378 5.75-5.75 9.455-13.744 10.302-22.47l17.105-176.183c.115-1.196.173-2.122.173-2.783 0-8.375-3.61-15.888-9.283-21.464-5.372-5.279-12.712-8.812-20.558-9.574-1.307-.125-2.37-.192-3.172-.192H882.208l-5.612-32.195a11.513 11.513 0 0 0-1.659-4.748l-.036.023-24.08-38.83a11.546 11.546 0 0 0-10.316-6.354H758.4z" style="fill:#6d4c41;fill-rule:nonzero"/><path d="M981.109 971.848h96.494V923.02h-96.494v48.828zm208.671 0V923.02h-96.494v48.828h96.494zm15.684-136.909v70.827h78.843l-2.32 17.254h-76.523v48.828h72.868l-2.249 17.255h-70.619v64.784h-15.684v-64.785h-96.494v64.785h-15.684v-64.785H981.11v64.785h-15.684v-64.785h-60.246l-3.553-17.254h63.799V923.02h-66.108l-3.666-17.254h69.774V834.94h15.684v70.827h96.493V834.94h15.684v70.827h96.494V834.94h15.684z" style="fill:#a1887f;fill-rule:nonzero"/><path class="fil10" d="M970.505 1124.06c11.582 0 22.069 4.696 29.66 12.287 7.59 7.592 12.287 18.08 12.287 29.661 0 11.582-4.696 22.069-12.287 29.66-7.591 7.59-18.078 12.287-29.66 12.287s-22.069-4.696-29.661-12.287c-7.591-7.591-12.287-18.078-12.287-29.66s4.696-22.069 12.287-29.661c7.591-7.591 18.078-12.287 29.661-12.287zM1187.92 1124.06c11.582 0 22.069 4.696 29.66 12.287 7.59 7.592 12.287 18.08 12.287 29.661 0 11.582-4.696 22.069-12.287 29.66-7.591 7.59-18.078 12.287-29.66 12.287s-22.07-4.696-29.661-12.287c-7.591-7.591-12.287-18.078-12.287-29.66s4.696-22.069 12.287-29.661c7.591-7.591 18.078-12.287 29.661-12.287z"/><path class="fil11" d="M1187.91 1146.13a19.817 19.817 0 0 1 14.056 5.823 19.817 19.817 0 0 1 5.823 14.055 19.817 19.817 0 0 1-5.823 14.056 19.822 19.822 0 0 1-14.056 5.823 19.82 19.82 0 0 1-14.055-5.823 19.817 19.817 0 0 1-5.823-14.056 19.817 19.817 0 0 1 5.823-14.055 19.813 19.813 0 0 1 14.055-5.823zM970.505 1146.13a19.814 19.814 0 0 1 14.055 5.823 19.817 19.817 0 0 1 5.823 14.055 19.817 19.817 0 0 1-5.823 14.056 19.817 19.817 0 0 1-14.055 5.823 19.822 19.822 0 0 1-14.056-5.823 19.822 19.822 0 0 1-5.823-14.056 19.821 19.821 0 0 1 5.823-14.055 19.817 19.817 0 0 1 14.056-5.823z"/></g></svg>